<svg xmlns="http://www.w3.org/2000/svg" width="1400" height="840" viewBox="0 0 1400 840" role="img" aria-label="JobPulse dashboard overview">
  <defs>
    <linearGradient id="bg" x1="0" y1="0" x2="1" y2="1">
      <stop offset="0%" stop-color="#f4f7ff"/>
      <stop offset="100%" stop-color="#eefcf7"/>
    </linearGradient>
  </defs>
  <rect width="1400" height="840" fill="url(#bg)"/>
  <rect x="40" y="36" width="1320" height="768" rx="18" fill="#ffffff" stroke="#d8e0ef"/>
  <rect x="40" y="36" width="1320" height="74" rx="18" fill="#0f172a"/>
  <text x="74" y="82" font-family="Segoe UI, Arial, sans-serif" font-size="30" fill="#ffffff" font-weight="700">JobPulse Dashboard</text>
  <rect x="74" y="146" width="288" height="124" rx="12" fill="#f8fafc" stroke="#cbd5e1"/>
  <text x="96" y="190" font-family="Segoe UI, Arial, sans-serif" font-size="22" fill="#0f172a" font-weight="700">Jobs Today</text>
  <text x="96" y="238" font-family="Segoe UI, Arial, sans-serif" font-size="40" fill="#059669" font-weight="700">20</text>
  <rect x="392" y="146" width="288" height="124" rx="12" fill="#f8fafc" stroke="#cbd5e1"/>
  <text x="414" y="190" font-family="Segoe UI, Arial, sans-serif" font-size="22" fill="#0f172a" font-weight="700">Email Sent</text>
  <text x="414" y="238" font-family="Segoe UI, Arial, sans-serif" font-size="40" fill="#2563eb" font-weight="700">Yes</text>
  <rect x="710" y="146" width="288" height="124" rx="12" fill="#f8fafc" stroke="#cbd5e1"/>
  <text x="732" y="190" font-family="Segoe UI, Arial, sans-serif" font-size="22" fill="#0f172a" font-weight="700">Source</text>
  <text x="732" y="238" font-family="Segoe UI, Arial, sans-serif" font-size="30" fill="#7c3aed" font-weight="700">LinkedIn</text>
  <rect x="1028" y="146" width="288" height="124" rx="12" fill="#f8fafc" stroke="#cbd5e1"/>
  <text x="1050" y="190" font-family="Segoe UI, Arial, sans-serif" font-size="22" fill="#0f172a" font-weight="700">Recency</text>
  <text x="1050" y="238" font-family="Segoe UI, Arial, sans-serif" font-size="30" fill="#dc2626" font-weight="700">Last 1 day</text>
  <rect x="74" y="304" width="1242" height="454" rx="12" fill="#ffffff" stroke="#cbd5e1"/>
  <text x="98" y="344" font-family="Segoe UI, Arial, sans-serif" font-size="22" fill="#0f172a" font-weight="700">Top Matches</text>
  <g font-family="Segoe UI, Arial, sans-serif" font-size="18" fill="#0f172a">
    <text x="98" y="394">1. Machine Learning Engineer, AI/ML Search Platform - Apple Services Engineering</text>
    <text x="98" y="432">2. AI Safety - Machine Learning and Applied Research</text>
    <text x="98" y="470">3. ML/AI Engineer</text>
    <text x="98" y="508">4. Deep Learning Manipulation Engineer</text>
    <text x="98" y="546">5. Machine Learning Engineer II</text>
  </g>
</svg>
