<svg xmlns="http://www.w3.org/2000/svg" width="1400" height="840" viewBox="0 0 1400 840" role="img" aria-label="JobPulse resume PDF parsing">
  <rect width="1400" height="840" fill="#fffaf0"/>
  <rect x="56" y="44" width="1288" height="752" rx="18" fill="#ffffff" stroke="#e5e7eb"/>
  <text x="88" y="98" font-family="Segoe UI, Arial, sans-serif" font-size="34" fill="#111827" font-weight="700">Resume Parsing (PDF Upload)</text>
  <rect x="88" y="134" width="1240" height="2" fill="#e5e7eb"/>

  <rect x="88" y="170" width="606" height="566" rx="12" fill="#f8fafc" stroke="#cbd5e1"/>
  <text x="114" y="214" font-family="Segoe UI, Arial, sans-serif" font-size="24" fill="#111827" font-weight="700">Upload Resume PDF</text>
  <rect x="114" y="242" width="560" height="56" rx="10" fill="#ffffff" stroke="#94a3b8"/>
  <text x="132" y="278" font-family="Segoe UI, Arial, sans-serif" font-size="18" fill="#475569">resume_.pdf</text>
  <rect x="114" y="324" width="22" height="22" rx="3" fill="#111827"/>
  <text x="146" y="342" font-family="Segoe UI, Arial, sans-serif" font-size="18" fill="#111827">Merge explicit Skills section terms</text>
  <rect x="114" y="370" width="246" height="52" rx="10" fill="#0f172a"/>
  <text x="138" y="404" font-family="Segoe UI, Arial, sans-serif" font-size="19" fill="#ffffff" font-weight="700">Extract From PDF</text>

  <rect x="726" y="170" width="602" height="566" rx="12" fill="#f8fafc" stroke="#cbd5e1"/>
  <text x="752" y="214" font-family="Segoe UI, Arial, sans-serif" font-size="24" fill="#111827" font-weight="700">Extracted Fields</text>
  <g font-family="Segoe UI, Arial, sans-serif" font-size="19" fill="#111827">
    <text x="752" y="258"><tspan font-weight="700">Name:</tspan> Raghu Vamshi Hemadri</text>
    <text x="752" y="294"><tspan font-weight="700">Email:</tspan> rh3884@nyu.edu</text>
  </g>
  <text x="752" y="338" font-family="Segoe UI, Arial, sans-serif" font-size="19" fill="#111827" font-weight="700">Top Skills</text>
  <g font-family="Segoe UI, Arial, sans-serif" font-size="17" fill="#334155">
    <text x="752" y="370">Machine Learning, Deep Learning, NLP, RL</text>
    <text x="752" y="398">Large Language Models, MLOps, PyTorch</text>
    <text x="752" y="426">TensorFlow, Kubernetes, CUDA, Transformers</text>
  </g>
  <rect x="752" y="472" width="520" height="50" rx="10" fill="#dcfce7" stroke="#86efac"/>
  <text x="772" y="503" font-family="Segoe UI, Arial, sans-serif" font-size="18" fill="#166534">Parsed successfully. Ready for matching + daily email.</text>
</svg>
